solid OpenSCAD_Model
  facet normal 0 0 -1
    outer loop
      vertex -2.5 -4 7
      vertex 2.5 -2 7
      vertex 2.5 -4 7
    endloop
  endfacet
  facet normal -0 0 -1
    outer loop
      vertex 2.5 -2 7
      vertex -2.5 -4 7
      vertex -2.5 -2 7
    endloop
  endfacet
  facet normal 1 0 0
    outer loop
      vertex 2.5 2 9
      vertex 2.5 4 17
      vertex 2.5 2 17
    endloop
  endfacet
  facet normal 1 0 0
    outer loop
      vertex 2.5 4 17
      vertex 2.5 2 9
      vertex 2.5 4 7
    endloop
  endfacet
  facet normal 1 0 0
    outer loop
      vertex 2.5 2 9
      vertex 2.5 2 7
      vertex 2.5 4 7
    endloop
  endfacet
  facet normal 1 0 0
    outer loop
      vertex 2.5 -2 7
      vertex 2.5 2 7
      vertex 2.5 2 9
    endloop
  endfacet
  facet normal 1 0 0
    outer loop
      vertex 2.5 -2 7
      vertex 2.5 2 9
      vertex 2.5 -2 9
    endloop
  endfacet
  facet normal 1 0 0
    outer loop
      vertex 2.5 2 7
      vertex 2.5 -2 7
      vertex 2.5 2 -2
    endloop
  endfacet
  facet normal 1 0 0
    outer loop
      vertex 2.5 2 -2
      vertex 2.5 -2 7
      vertex 2.5 -2 -2
    endloop
  endfacet
  facet normal 1 -0 0
    outer loop
      vertex 2.5 -4 17
      vertex 2.5 -2 9
      vertex 2.5 -2 17
    endloop
  endfacet
  facet normal 1 0 0
    outer loop
      vertex 2.5 -4 7
      vertex 2.5 -2 9
      vertex 2.5 -4 17
    endloop
  endfacet
  facet normal 1 0 0
    outer loop
      vertex 2.5 -2 9
      vertex 2.5 -4 7
      vertex 2.5 -2 7
    endloop
  endfacet
  facet normal 0 -1 0
    outer loop
      vertex -2.5 -4 7
      vertex 2.5 -4 17
      vertex -2.5 -4 17
    endloop
  endfacet
  facet normal 0 -1 -0
    outer loop
      vertex 2.5 -4 17
      vertex -2.5 -4 7
      vertex 2.5 -4 7
    endloop
  endfacet
  facet normal -0 0 1
    outer loop
      vertex -2.5 -2 17
      vertex 2.5 -4 17
      vertex 2.5 -2 17
    endloop
  endfacet
  facet normal 0 0 1
    outer loop
      vertex 2.5 -4 17
      vertex -2.5 -2 17
      vertex -2.5 -4 17
    endloop
  endfacet
  facet normal -1 0 0
    outer loop
      vertex -2.5 2 9
      vertex -2.5 4 7
      vertex -2.5 2 7
    endloop
  endfacet
  facet normal -1 0 0
    outer loop
      vertex -2.5 4 7
      vertex -2.5 2 9
      vertex -2.5 4 17
    endloop
  endfacet
  facet normal -1 -0 0
    outer loop
      vertex -2.5 4 17
      vertex -2.5 2 9
      vertex -2.5 2 17
    endloop
  endfacet
  facet normal -1 0 0
    outer loop
      vertex -2.5 -2 7
      vertex -2.5 2 7
      vertex -2.5 2 -2
    endloop
  endfacet
  facet normal -1 0 0
    outer loop
      vertex -2.5 -2 7
      vertex -2.5 2 -2
      vertex -2.5 -2 -2
    endloop
  endfacet
  facet normal -1 0 0
    outer loop
      vertex -2.5 2 7
      vertex -2.5 -2 7
      vertex -2.5 2 9
    endloop
  endfacet
  facet normal -1 0 0
    outer loop
      vertex -2.5 -2 7
      vertex -2.5 -2 9
      vertex -2.5 2 9
    endloop
  endfacet
  facet normal -1 0 0
    outer loop
      vertex -2.5 -4 7
      vertex -2.5 -2 9
      vertex -2.5 -2 7
    endloop
  endfacet
  facet normal -1 0 0
    outer loop
      vertex -2.5 -4 17
      vertex -2.5 -2 9
      vertex -2.5 -4 7
    endloop
  endfacet
  facet normal -1 0 0
    outer loop
      vertex -2.5 -2 9
      vertex -2.5 -4 17
      vertex -2.5 -2 17
    endloop
  endfacet
  facet normal 0 1 -0
    outer loop
      vertex 2.5 -2 9
      vertex -2.5 -2 17
      vertex 2.5 -2 17
    endloop
  endfacet
  facet normal 0 1 0
    outer loop
      vertex -2.5 -2 17
      vertex 2.5 -2 9
      vertex -2.5 -2 9
    endloop
  endfacet
  facet normal 0 -1 0
    outer loop
      vertex -2.5 -2 -2
      vertex 2.5 -2 7
      vertex -2.5 -2 7
    endloop
  endfacet
  facet normal 0 -1 -0
    outer loop
      vertex 2.5 -2 7
      vertex -2.5 -2 -2
      vertex 2.5 -2 -2
    endloop
  endfacet
  facet normal 0 0 -1
    outer loop
      vertex -2.5 2 7
      vertex 2.5 4 7
      vertex 2.5 2 7
    endloop
  endfacet
  facet normal -0 0 -1
    outer loop
      vertex 2.5 4 7
      vertex -2.5 2 7
      vertex -2.5 4 7
    endloop
  endfacet
  facet normal 0 1 -0
    outer loop
      vertex 2.5 2 -2
      vertex -2.5 2 7
      vertex 2.5 2 7
    endloop
  endfacet
  facet normal 0 1 0
    outer loop
      vertex -2.5 2 7
      vertex 2.5 2 -2
      vertex -2.5 2 -2
    endloop
  endfacet
  facet normal 0 -1 0
    outer loop
      vertex -2.5 2 9
      vertex 2.5 2 17
      vertex -2.5 2 17
    endloop
  endfacet
  facet normal 0 -1 -0
    outer loop
      vertex 2.5 2 17
      vertex -2.5 2 9
      vertex 2.5 2 9
    endloop
  endfacet
  facet normal -0 0 1
    outer loop
      vertex -2.5 4 17
      vertex 2.5 2 17
      vertex 2.5 4 17
    endloop
  endfacet
  facet normal 0 0 1
    outer loop
      vertex 2.5 2 17
      vertex -2.5 4 17
      vertex -2.5 2 17
    endloop
  endfacet
  facet normal 0 1 -0
    outer loop
      vertex 2.5 4 7
      vertex -2.5 4 17
      vertex 2.5 4 17
    endloop
  endfacet
  facet normal 0 1 0
    outer loop
      vertex -2.5 4 17
      vertex 2.5 4 7
      vertex -2.5 4 7
    endloop
  endfacet
  facet normal 0 0 -1
    outer loop
      vertex -2.5 -2 -2
      vertex 2.5 2 -2
      vertex 2.5 -2 -2
    endloop
  endfacet
  facet normal -0 0 -1
    outer loop
      vertex 2.5 2 -2
      vertex -2.5 -2 -2
      vertex -2.5 2 -2
    endloop
  endfacet
  facet normal -0 0 1
    outer loop
      vertex -2.5 2 9
      vertex 2.5 -2 9
      vertex 2.5 2 9
    endloop
  endfacet
  facet normal 0 0 1
    outer loop
      vertex 2.5 -2 9
      vertex -2.5 2 9
      vertex -2.5 -2 9
    endloop
  endfacet
endsolid OpenSCAD_Model
